<svg width="64" height="64" viewBox="0 0 64 64" fill="none" xmlns="http://www.w3.org/2000/svg">
<rect width="64" height="64" rx="16" fill="white"/>
<path d="M50.4688 42.25C50.4688 45.0208 49.75 47.5104 48.3125 49.7188C46.8958 51.9271 44.8125 53.6562 42.0625 54.9062C39.3125 56.1562 36.0521 56.7812 32.2812 56.7812C27.7604 56.7812 24.0312 55.9271 21.0938 54.2188C19.0104 52.9896 17.3125 51.3542 16 49.3125C14.7083 47.25 14.0625 45.25 14.0625 43.3125C14.0625 42.1875 14.4479 41.2292 15.2188 40.4375C16.0104 39.625 17.0104 39.2188 18.2188 39.2188C19.1979 39.2188 20.0208 39.5312 20.6875 40.1562C21.375 40.7812 21.9583 41.7083 22.4375 42.9375C23.0208 44.3958 23.6458 45.6146 24.3125 46.5938C25 47.5729 25.9583 48.3854 27.1875 49.0312C28.4167 49.6562 30.0312 49.9688 32.0312 49.9688C34.7812 49.9688 37.0104 49.3333 38.7188 48.0625C40.4479 46.7708 41.3125 45.1667 41.3125 43.25C41.3125 41.7292 40.8438 40.5 39.9062 39.5625C38.9896 38.6042 37.7917 37.875 36.3125 37.375C34.8542 36.875 32.8958 36.3438 30.4375 35.7812C27.1458 35.0104 24.3854 34.1146 22.1562 33.0938C19.9479 32.0521 18.1875 30.6458 16.875 28.875C15.5833 27.0833 14.9375 24.8646 14.9375 22.2188C14.9375 19.6979 15.625 17.4583 17 15.5C18.375 13.5417 20.3646 12.0417 22.9688 11C25.5729 9.9375 28.6354 9.40625 32.1562 9.40625C34.9688 9.40625 37.3958 9.76042 39.4375 10.4688C41.5 11.1562 43.2083 12.0833 44.5625 13.25C45.9167 14.3958 46.9062 15.6042 47.5312 16.875C48.1562 18.1458 48.4688 19.3854 48.4688 20.5938C48.4688 21.6979 48.0729 22.6979 47.2812 23.5938C46.5104 24.4688 45.5417 24.9062 44.375 24.9062C43.3125 24.9062 42.5 24.6458 41.9375 24.125C41.3958 23.5833 40.8021 22.7083 40.1562 21.5C39.3229 19.7708 38.3229 18.4271 37.1562 17.4688C35.9896 16.4896 34.1146 16 31.5312 16C29.1354 16 27.1979 16.5312 25.7188 17.5938C24.2604 18.6354 23.5312 19.8958 23.5312 21.375C23.5312 22.2917 23.7812 23.0833 24.2812 23.75C24.7812 24.4167 25.4688 24.9896 26.3438 25.4688C27.2188 25.9479 28.1042 26.3229 29 26.5938C29.8958 26.8646 31.375 27.2604 33.4375 27.7812C36.0208 28.3854 38.3542 29.0521 40.4375 29.7812C42.5417 30.5104 44.3229 31.3958 45.7812 32.4375C47.2604 33.4792 48.4062 34.8021 49.2188 36.4062C50.0521 37.9896 50.4688 39.9375 50.4688 42.25Z" fill="#356AAF"/>
</svg>
