<svg width="64" height="64" viewBox="0 0 64 64" fill="none" xmlns="http://www.w3.org/2000/svg">
<rect width="64" height="64" rx="16" fill="white"/>
<path d="M22.1882 49.5114C19.5405 49.5114 17.2507 48.9489 15.3189 47.8239C13.3984 46.6875 11.9155 45.108 10.87 43.0852C9.82457 41.0511 9.30185 38.6932 9.30185 36.0114C9.30185 33.3068 9.82457 30.9432 10.87 28.9205C11.9155 26.8864 13.3984 25.3068 15.3189 24.1818C17.2507 23.0455 19.5405 22.4773 22.1882 22.4773C24.8359 22.4773 27.12 23.0455 29.0405 24.1818C30.9723 25.3068 32.4609 26.8864 33.5064 28.9205C34.5518 30.9432 35.0746 33.3068 35.0746 36.0114C35.0746 38.6932 34.5518 41.0511 33.5064 43.0852C32.4609 45.108 30.9723 46.6875 29.0405 47.8239C27.12 48.9489 24.8359 49.5114 22.1882 49.5114ZM22.2223 43.8864C23.4268 43.8864 24.4325 43.5455 25.2393 42.8636C26.0462 42.1705 26.6541 41.2273 27.0632 40.0341C27.4837 38.8409 27.6939 37.483 27.6939 35.9602C27.6939 34.4375 27.4837 33.0795 27.0632 31.8864C26.6541 30.6932 26.0462 29.75 25.2393 29.0568C24.4325 28.3636 23.4268 28.017 22.2223 28.017C21.0064 28.017 19.9837 28.3636 19.1541 29.0568C18.3359 29.75 17.7166 30.6932 17.2962 31.8864C16.8871 33.0795 16.6825 34.4375 16.6825 35.9602C16.6825 37.483 16.8871 38.8409 17.2962 40.0341C17.7166 41.2273 18.3359 42.1705 19.1541 42.8636C19.9837 43.5455 21.0064 43.8864 22.2223 43.8864ZM39.7962 49V22.8182H46.8359V27.3864H47.1087C47.5859 25.7614 48.3871 24.5341 49.5121 23.7045C50.6371 22.8636 51.9325 22.4432 53.3984 22.4432C53.7621 22.4432 54.1541 22.4659 54.5746 22.5114C54.995 22.5568 55.3643 22.6193 55.6825 22.6989V29.142C55.3416 29.0398 54.87 28.9489 54.2678 28.8693C53.6655 28.7898 53.1143 28.75 52.6143 28.75C51.5462 28.75 50.5916 28.983 49.7507 29.4489C48.9212 29.9034 48.2621 30.5398 47.7734 31.358C47.2962 32.1761 47.0575 33.1193 47.0575 34.1875V49H39.7962Z" fill="#F2CB66"/>
</svg>
