<svg width="508" height="112" viewBox="0 0 508 112" fill="none" xmlns="http://www.w3.org/2000/svg">
<path d="M57.3579 40.4829L40.7386 41.5057C40.4545 40.0852 39.8437 38.8068 38.9062 37.6704C37.9687 36.5057 36.7329 35.5824 35.1988 34.9005C33.6931 34.1903 31.8891 33.8352 29.7868 33.8352C26.9743 33.8352 24.6022 34.4318 22.6704 35.625C20.7385 36.7897 19.7726 38.3522 19.7726 40.3125C19.7726 41.875 20.3976 43.196 21.6476 44.2755C22.8976 45.3551 25.0425 46.2216 28.0823 46.875L39.9289 49.2613C46.2925 50.5682 51.0368 52.6704 54.1618 55.5682C57.2868 58.4659 58.8493 62.2727 58.8493 66.9886C58.8493 71.2784 57.5851 75.0426 55.0567 78.2812C52.5567 81.5199 49.1192 84.0483 44.7442 85.8665C40.3976 87.6562 35.3834 88.5511 29.7016 88.5511C21.0368 88.5511 14.1334 86.7471 8.99139 83.1392C3.87775 79.5028 0.880593 74.5596 -8.84533e-05 68.3096L17.855 67.3721C18.3948 70.0142 19.7016 72.0312 21.7755 73.4233C23.8493 74.7869 26.5056 75.4687 29.7442 75.4687C32.926 75.4687 35.4829 74.8579 37.4147 73.6363C39.3749 72.3863 40.3692 70.7812 40.3976 68.821C40.3692 67.1733 39.6732 65.8238 38.3096 64.7727C36.9459 63.6932 34.8437 62.8693 32.0028 62.3011L20.6675 60.0426C14.2755 58.7642 9.51696 56.5483 6.39196 53.3949C3.29537 50.2415 1.74707 46.2216 1.74707 41.3352C1.74707 37.1307 2.88343 33.5085 5.15616 30.4687C7.4573 27.429 10.6817 25.0852 14.8295 23.4375C19.0056 21.7898 23.892 20.9659 29.4886 20.9659C37.7556 20.9659 44.2613 22.713 49.0056 26.2074C53.7783 29.7017 56.5624 34.4602 57.3579 40.4829ZM86.7293 68.4375L86.7719 46.6619H89.414L110.38 21.8182H131.218L103.05 54.7159H98.7464L86.7293 68.4375ZM70.2805 87.2727V-2.47955e-05H88.4339V87.2727H70.2805ZM111.19 87.2727L91.9282 58.7642L104.03 45.9375L132.454 87.2727H111.19ZM152.386 111.818C150.085 111.818 147.926 111.634 145.909 111.264C143.92 110.923 142.273 110.483 140.966 109.943L145.057 96.392C147.187 97.0454 149.105 97.4005 150.81 97.4574C152.543 97.5142 154.034 97.1165 155.284 96.2642C156.562 95.4119 157.599 93.963 158.395 91.9176L159.46 89.1477L135.98 21.8182H155.071L168.622 69.8863H169.304L182.983 21.8182H202.202L176.761 94.3466C175.54 97.8693 173.878 100.937 171.775 103.551C169.702 106.193 167.074 108.224 163.892 109.645C160.71 111.094 156.875 111.818 152.386 111.818ZM246.307 21.8182V35.4545H206.889V21.8182H246.307ZM215.838 6.13634H233.991V67.1591C233.991 68.8352 234.247 70.142 234.758 71.0795C235.27 71.9886 235.98 72.6278 236.889 72.9971C237.827 73.3665 238.906 73.5511 240.128 73.5511C240.98 73.5511 241.832 73.4801 242.685 73.338C243.537 73.1676 244.19 73.0398 244.645 72.9545L247.5 86.463C246.591 86.7471 245.312 87.0738 243.665 87.4432C242.017 87.8409 240.014 88.0824 237.656 88.1676C233.281 88.338 229.446 87.7557 226.15 86.4204C222.883 85.0852 220.341 83.0113 218.523 80.1988C216.704 77.3863 215.81 73.8352 215.838 69.5454V6.13634ZM277.692 -2.47955e-05V87.2727H259.538V-2.47955e-05H277.692ZM310.898 88.5085C306.722 88.5085 303.001 87.7841 299.734 86.3352C296.467 84.8579 293.881 82.6846 291.978 79.8153C290.103 76.9176 289.165 73.3096 289.165 68.9915C289.165 65.3551 289.833 62.3011 291.168 59.8295C292.503 57.3579 294.322 55.3693 296.623 53.8636C298.924 52.3579 301.538 51.2216 304.464 50.4545C307.418 49.6875 310.515 49.1477 313.753 48.8352C317.56 48.4375 320.628 48.0682 322.958 47.7272C325.288 47.3579 326.978 46.8182 328.029 46.1079C329.08 45.3977 329.606 44.3466 329.606 42.9545V42.6988C329.606 40 328.753 37.9119 327.049 36.4346C325.373 34.9574 322.986 34.2187 319.89 34.2187C316.623 34.2187 314.023 34.9432 312.092 36.392C310.16 37.8125 308.881 39.6023 308.256 41.7613L291.467 40.3977C292.319 36.4204 293.995 32.9829 296.495 30.0852C298.995 27.1591 302.219 24.9147 306.168 23.3522C310.146 21.7613 314.748 20.9659 319.975 20.9659C323.611 20.9659 327.092 21.392 330.415 22.2443C333.768 23.0966 336.736 24.4176 339.322 26.2074C341.935 27.9971 343.995 30.2983 345.501 33.1108C347.006 35.8949 347.759 39.2329 347.759 43.125V87.2727H330.543V78.196H330.032C328.981 80.2415 327.574 82.0454 325.813 83.6079C324.052 85.142 321.935 86.3494 319.464 87.2301C316.992 88.0824 314.137 88.5085 310.898 88.5085ZM316.097 75.9801C318.768 75.9801 321.126 75.4545 323.171 74.4034C325.217 73.3238 326.822 71.875 327.986 70.0568C329.151 68.2386 329.734 66.179 329.734 63.8778V56.9318C329.165 57.3011 328.384 57.642 327.39 57.9545C326.424 58.2386 325.33 58.5085 324.109 58.7642C322.887 58.9915 321.665 59.2045 320.444 59.4034C319.222 59.5738 318.114 59.7301 317.12 59.8721C314.989 60.1846 313.128 60.6818 311.538 61.3636C309.947 62.0454 308.711 62.9687 307.83 64.1335C306.949 65.2699 306.509 66.6903 306.509 68.3949C306.509 70.8665 307.404 72.7557 309.194 74.0625C311.012 75.3409 313.313 75.9801 316.097 75.9801Z" fill="#356AAF"/>
<path d="M364.27 87.8728C362.747 87.8728 361.439 87.3343 360.346 86.2571C359.269 85.1645 358.73 83.8565 358.73 82.3331C358.73 80.825 359.269 79.5324 360.346 78.4552C361.439 77.3781 362.747 76.8395 364.27 76.8395C365.747 76.8395 367.04 77.3781 368.148 78.4552C369.256 79.5324 369.81 80.825 369.81 82.3331C369.81 83.3487 369.548 84.2797 369.025 85.126C368.517 85.957 367.848 86.6264 367.017 87.1342C366.186 87.6266 365.27 87.8728 364.27 87.8728ZM393.902 87.9652C390.271 87.9652 387.147 87.1958 384.531 85.6569C381.93 84.1027 379.93 81.9484 378.529 79.1939C377.144 76.4394 376.452 73.2694 376.452 69.6839C376.452 66.0523 377.152 62.8669 378.552 60.1278C379.968 57.3733 381.976 55.2267 384.577 53.6878C387.177 52.1336 390.271 51.3565 393.856 51.3565C396.949 51.3565 399.657 51.9182 401.981 53.0415C404.305 54.1649 406.144 55.7422 407.498 57.7734C408.852 59.8047 409.598 62.1898 409.737 64.929H400.458C400.196 63.1593 399.503 61.7359 398.38 60.6587C397.272 59.5661 395.818 59.0199 394.018 59.0199C392.494 59.0199 391.163 59.4353 390.024 60.2663C388.901 61.0819 388.024 62.2745 387.393 63.8441C386.762 65.4137 386.447 67.3141 386.447 69.5454C386.447 71.8075 386.754 73.731 387.37 75.316C388.001 76.901 388.886 78.109 390.024 78.94C391.163 79.7709 392.494 80.1864 394.018 80.1864C395.141 80.1864 396.149 79.9556 397.041 79.4939C397.949 79.0323 398.696 78.3629 399.28 77.4858C399.881 76.5933 400.273 75.5238 400.458 74.2773H409.737C409.583 76.9857 408.844 79.3708 407.521 81.4329C406.213 83.4795 404.405 85.0799 402.096 86.234C399.788 87.3881 397.057 87.9652 393.902 87.9652ZM432.052 87.9652C428.466 87.9652 425.365 87.2035 422.749 85.68C420.149 84.1412 418.141 82.0022 416.725 79.2631C415.309 76.5086 414.601 73.3156 414.601 69.6839C414.601 66.0215 415.309 62.8208 416.725 60.0817C418.141 57.3272 420.149 55.1882 422.749 53.6647C425.365 52.1259 428.466 51.3565 432.052 51.3565C435.637 51.3565 438.73 52.1259 441.331 53.6647C443.947 55.1882 445.963 57.3272 447.378 60.0817C448.794 62.8208 449.502 66.0215 449.502 69.6839C449.502 73.3156 448.794 76.5086 447.378 79.2631C445.963 82.0022 443.947 84.1412 441.331 85.68C438.73 87.2035 435.637 87.9652 432.052 87.9652ZM432.098 80.348C433.729 80.348 435.091 79.8863 436.183 78.963C437.276 78.0244 438.099 76.7471 438.653 75.1314C439.223 73.5156 439.507 71.6767 439.507 69.6147C439.507 67.5527 439.223 65.7138 438.653 64.098C438.099 62.4822 437.276 61.205 436.183 60.2663C435.091 59.3276 433.729 58.8583 432.098 58.8583C430.451 58.8583 429.066 59.3276 427.943 60.2663C426.835 61.205 425.996 62.4822 425.427 64.098C424.873 65.7138 424.596 67.5527 424.596 69.6147C424.596 71.6767 424.873 73.5156 425.427 75.1314C425.996 76.7471 426.835 78.0244 427.943 78.963C429.066 79.8863 430.451 80.348 432.098 80.348ZM455.896 87.2727V51.8182H465.267V58.0735H465.683C466.421 55.9961 467.652 54.3572 469.376 53.1569C471.099 51.9567 473.161 51.3565 475.562 51.3565C477.993 51.3565 480.063 51.9643 481.771 53.18C483.479 54.3803 484.618 56.0115 485.187 58.0735H485.557C486.28 56.0422 487.588 54.4188 489.481 53.2031C491.389 51.972 493.643 51.3565 496.244 51.3565C499.552 51.3565 502.237 52.4106 504.299 54.5188C506.377 56.6116 507.416 59.5815 507.416 63.4286V87.2727H497.606V65.3675C497.606 63.3978 497.082 61.9205 496.036 60.9357C494.99 59.9509 493.682 59.4584 492.112 59.4584C490.327 59.4584 488.934 60.0278 487.934 61.1665C486.934 62.2899 486.434 63.7748 486.434 65.6214V87.2727H476.901V65.1598C476.901 63.4209 476.401 62.036 475.4 61.0049C474.415 59.9739 473.115 59.4584 471.499 59.4584C470.407 59.4584 469.422 59.7354 468.545 60.2894C467.683 60.828 466.998 61.5897 466.491 62.5746C465.983 63.544 465.729 64.6827 465.729 65.9907V87.2727H455.896Z" fill="#F2CB66"/>
</svg>
