<svg width="499" height="140" viewBox="0 0 499 140" fill="none" xmlns="http://www.w3.org/2000/svg">
<path d="M59.7656 94.5469C59.7656 98.9609 58.6914 102.75 56.543 105.914C54.3945 109.039 51.2109 111.422 46.9922 113.062C42.8125 114.664 37.7148 115.465 31.6992 115.465C25.957 115.465 21.0352 114.586 16.9336 112.828C12.832 111.07 9.80469 108.883 7.85156 106.266C5.89844 103.609 4.92188 100.953 4.92188 98.2969C4.92188 96.5391 5.54688 95.0352 6.79688 93.7852C8.04688 92.5352 9.62891 91.9102 11.543 91.9102C13.2227 91.9102 14.5117 92.3203 15.4102 93.1406C16.3086 93.9609 17.168 95.1133 17.9883 96.5977C19.6289 99.4492 21.582 101.578 23.8477 102.984C26.1523 104.391 29.2773 105.094 33.2227 105.094C36.4258 105.094 39.043 104.391 41.0742 102.984C43.1445 101.539 44.1797 99.8984 44.1797 98.0625C44.1797 95.25 43.1055 93.1992 40.957 91.9102C38.8477 90.6211 35.3516 89.3906 30.4688 88.2188C24.9609 86.8516 20.4688 85.4258 16.9922 83.9414C13.5547 82.418 10.8008 80.4258 8.73047 77.9648C6.66016 75.5039 5.625 72.4766 5.625 68.8828C5.625 65.6797 6.58203 62.6523 8.49609 59.8008C10.4102 56.9492 13.2227 54.6836 16.9336 53.0039C20.6836 51.2852 25.1953 50.4258 30.4688 50.4258C34.6094 50.4258 38.3203 50.8555 41.6016 51.7148C44.9219 52.5742 47.6758 53.7266 49.8633 55.1719C52.0898 56.6172 53.7695 58.2188 54.9023 59.9766C56.0742 61.7344 56.6602 63.4531 56.6602 65.1328C56.6602 66.9688 56.0352 68.4727 54.7852 69.6445C53.5742 70.8164 51.8359 71.4023 49.5703 71.4023C47.9297 71.4023 46.5234 70.9336 45.3516 69.9961C44.2188 69.0586 42.9102 67.6523 41.4258 65.7773C40.2148 64.2148 38.7891 62.9648 37.1484 62.0273C35.5078 61.0898 33.2812 60.6211 30.4688 60.6211C27.5781 60.6211 25.1758 61.2461 23.2617 62.4961C21.3477 63.707 20.3906 65.2305 20.3906 67.0664C20.3906 68.7461 21.0938 70.1328 22.5 71.2266C23.9062 72.2812 25.8008 73.1602 28.1836 73.8633C30.5664 74.5664 33.8477 75.4258 38.0273 76.4414C42.9883 77.6523 47.0312 79.0977 50.1562 80.7773C53.3203 82.457 55.7031 84.4492 57.3047 86.7539C58.9453 89.0195 59.7656 91.6172 59.7656 94.5469ZM113.145 108.141L99.0234 84.9375L90.3516 93.1406V105.855C90.3516 108.941 89.5312 111.324 87.8906 113.004C86.2891 114.645 84.4336 115.465 82.3242 115.465C79.8633 115.465 77.9297 114.645 76.5234 113.004C75.1172 111.363 74.4141 108.941 74.4141 105.738V37.5352C74.4141 33.9805 75.0977 31.2852 76.4648 29.4492C77.832 27.5742 79.7852 26.6367 82.3242 26.6367C84.7852 26.6367 86.7383 27.4766 88.1836 29.1562C89.6289 30.8359 90.3516 33.3164 90.3516 36.5977V75.3867L108.34 56.5195C110.566 54.1758 112.266 52.5742 113.438 51.7148C114.609 50.8555 116.035 50.4258 117.715 50.4258C119.707 50.4258 121.367 51.0703 122.695 52.3594C124.023 53.6094 124.688 55.1914 124.688 57.1055C124.688 59.4492 122.52 62.5742 118.184 66.4805L109.688 74.2734L126.094 100.055C127.305 101.969 128.164 103.434 128.672 104.449C129.219 105.426 129.492 106.363 129.492 107.262C129.492 109.801 128.789 111.812 127.383 113.297C126.016 114.742 124.199 115.465 121.934 115.465C119.98 115.465 118.477 114.938 117.422 113.883C116.367 112.828 114.941 110.914 113.145 108.141ZM153.926 117.457L155.391 113.883L135.703 64.3125C134.492 61.4609 133.887 59.3906 133.887 58.1016C133.887 56.7344 134.238 55.4648 134.941 54.293C135.645 53.1211 136.602 52.1836 137.812 51.4805C139.062 50.7773 140.352 50.4258 141.68 50.4258C143.984 50.4258 145.723 51.168 146.895 52.6523C148.066 54.0977 149.102 56.1875 150 58.9219L163.535 98.2969L176.367 61.6758C177.383 58.707 178.301 56.3828 179.121 54.7031C179.941 53.0234 180.801 51.8906 181.699 51.3047C182.637 50.7188 183.945 50.4258 185.625 50.4258C186.836 50.4258 187.988 50.7578 189.082 51.4219C190.215 52.0469 191.074 52.9062 191.66 54C192.285 55.0938 192.598 56.2461 192.598 57.457C192.441 58.1992 192.188 59.2539 191.836 60.6211C191.484 61.9883 191.055 63.375 190.547 64.7812L169.688 119.391C167.891 124.195 166.133 127.965 164.414 130.699C162.695 133.434 160.41 135.523 157.559 136.969C154.746 138.453 150.938 139.195 146.133 139.195C141.445 139.195 137.93 138.688 135.586 137.672C133.242 136.656 132.07 134.801 132.07 132.105C132.07 130.27 132.617 128.844 133.711 127.828C134.844 126.852 136.504 126.363 138.691 126.363C139.551 126.363 140.391 126.48 141.211 126.715C142.227 126.949 143.105 127.066 143.848 127.066C145.684 127.066 147.129 126.793 148.184 126.246C149.238 125.699 150.176 124.742 150.996 123.375C151.855 122.047 152.832 120.074 153.926 117.457ZM205.078 51.832H206.836V42.2227C206.836 39.6445 206.895 37.6328 207.012 36.1875C207.168 34.7031 207.559 33.4336 208.184 32.3789C208.809 31.2852 209.707 30.4062 210.879 29.7422C212.051 29.0391 213.359 28.6875 214.805 28.6875C216.836 28.6875 218.672 29.4492 220.312 30.9727C221.406 31.9883 222.09 33.2383 222.363 34.7227C222.676 36.168 222.832 38.2383 222.832 40.9336V51.832H228.691C230.957 51.832 232.676 52.3789 233.848 53.4727C235.059 54.5273 235.664 55.8945 235.664 57.5742C235.664 59.7227 234.805 61.2266 233.086 62.0859C231.406 62.9453 228.984 63.375 225.82 63.375H222.832V92.7891C222.832 95.2891 222.91 97.2227 223.066 98.5898C223.262 99.918 223.73 101.012 224.473 101.871C225.254 102.691 226.504 103.102 228.223 103.102C229.16 103.102 230.43 102.945 232.031 102.633C233.633 102.281 234.883 102.105 235.781 102.105C237.07 102.105 238.223 102.633 239.238 103.688C240.293 104.703 240.82 105.973 240.82 107.496C240.82 110.074 239.414 112.047 236.602 113.414C233.789 114.781 229.746 115.465 224.473 115.465C219.473 115.465 215.684 114.625 213.105 112.945C210.527 111.266 208.828 108.941 208.008 105.973C207.227 103.004 206.836 99.0391 206.836 94.0781V63.375H204.727C202.422 63.375 200.664 62.8281 199.453 61.7344C198.242 60.6406 197.637 59.2539 197.637 57.5742C197.637 55.8945 198.262 54.5273 199.512 53.4727C200.801 52.3789 202.656 51.832 205.078 51.832ZM246.738 105.738V36.3633C246.738 33.1602 247.441 30.7383 248.848 29.0977C250.293 27.457 252.227 26.6367 254.648 26.6367C257.07 26.6367 259.023 27.457 260.508 29.0977C261.992 30.6992 262.734 33.1211 262.734 36.3633V105.738C262.734 108.98 261.973 111.422 260.449 113.062C258.965 114.664 257.031 115.465 254.648 115.465C252.305 115.465 250.391 114.625 248.906 112.945C247.461 111.266 246.738 108.863 246.738 105.738ZM319.746 106.441C315.879 109.449 312.129 111.715 308.496 113.238C304.902 114.723 300.859 115.465 296.367 115.465C292.266 115.465 288.652 114.664 285.527 113.062C282.441 111.422 280.059 109.215 278.379 106.441C276.699 103.668 275.859 100.66 275.859 97.418C275.859 93.043 277.246 89.3125 280.02 86.2266C282.793 83.1406 286.602 81.0703 291.445 80.0156C292.461 79.7812 294.98 79.2539 299.004 78.4336C303.027 77.6133 306.465 76.8711 309.316 76.207C312.207 75.5039 315.332 74.6641 318.691 73.6875C318.496 69.4688 317.637 66.3828 316.113 64.4297C314.629 62.4375 311.523 61.4414 306.797 61.4414C302.734 61.4414 299.668 62.0078 297.598 63.1406C295.566 64.2734 293.809 65.9727 292.324 68.2383C290.879 70.5039 289.844 72.0078 289.219 72.75C288.633 73.4531 287.344 73.8047 285.352 73.8047C283.555 73.8047 281.992 73.2383 280.664 72.1055C279.375 70.9336 278.73 69.4492 278.73 67.6523C278.73 64.8398 279.727 62.1055 281.719 59.4492C283.711 56.793 286.816 54.6055 291.035 52.8867C295.254 51.168 300.508 50.3086 306.797 50.3086C313.828 50.3086 319.355 51.1484 323.379 52.8281C327.402 54.4688 330.234 57.0859 331.875 60.6797C333.555 64.2734 334.395 69.0391 334.395 74.9766C334.395 78.7266 334.375 81.9102 334.336 84.5273C334.336 87.1445 334.316 90.0547 334.277 93.2578C334.277 96.2656 334.766 99.4102 335.742 102.691C336.758 105.934 337.266 108.023 337.266 108.961C337.266 110.602 336.484 112.105 334.922 113.473C333.398 114.801 331.66 115.465 329.707 115.465C328.066 115.465 326.445 114.703 324.844 113.18C323.242 111.617 321.543 109.371 319.746 106.441ZM318.691 83.2969C316.348 84.1562 312.93 85.0742 308.438 86.0508C303.984 86.9883 300.898 87.6914 299.18 88.1602C297.461 88.5898 295.82 89.4688 294.258 90.7969C292.695 92.0859 291.914 93.9023 291.914 96.2461C291.914 98.668 292.832 100.738 294.668 102.457C296.504 104.137 298.906 104.977 301.875 104.977C305.039 104.977 307.949 104.293 310.605 102.926C313.301 101.52 315.273 99.7227 316.523 97.5352C317.969 95.1133 318.691 91.1289 318.691 85.582V83.2969Z" fill="#232F3E"/>
<path d="M352.642 114.793C351.33 114.793 350.198 114.37 349.246 113.524C348.293 112.678 347.817 111.493 347.817 109.969C347.817 108.679 348.272 107.568 349.182 106.637C350.092 105.706 351.213 105.24 352.546 105.24C353.879 105.24 355.011 105.706 355.942 106.637C356.895 107.547 357.371 108.657 357.371 109.969C357.371 111.472 356.895 112.656 355.942 113.524C355.011 114.37 353.911 114.793 352.642 114.793ZM398.345 104.066C398.345 105.145 398.017 106.298 397.361 107.525C396.726 108.753 395.742 109.927 394.409 111.048C393.097 112.149 391.436 113.037 389.426 113.714C387.416 114.391 385.152 114.73 382.634 114.73C377.281 114.73 373.102 113.175 370.098 110.064C367.093 106.933 365.591 102.743 365.591 97.4961C365.591 93.9414 366.278 90.7993 367.654 88.0698C369.029 85.3403 371.018 83.235 373.621 81.7539C376.223 80.2516 379.333 79.5005 382.952 79.5005C385.194 79.5005 387.247 79.8285 389.109 80.4844C390.992 81.1403 392.579 81.9867 393.87 83.0234C395.181 84.0602 396.176 85.1711 396.853 86.356C397.551 87.5197 397.9 88.6094 397.9 89.625C397.9 90.6618 397.509 91.5399 396.726 92.2593C395.964 92.9787 395.033 93.3384 393.933 93.3384C393.214 93.3384 392.611 93.1585 392.124 92.7988C391.659 92.418 391.13 91.8149 390.537 90.9897C389.479 89.3817 388.368 88.1756 387.205 87.3716C386.062 86.5675 384.602 86.1655 382.825 86.1655C380.264 86.1655 378.201 87.1706 376.636 89.1807C375.07 91.1696 374.287 93.8991 374.287 97.3691C374.287 98.9984 374.488 100.501 374.89 101.876C375.292 103.23 375.874 104.394 376.636 105.367C377.397 106.319 378.318 107.049 379.397 107.557C380.476 108.044 381.661 108.287 382.952 108.287C384.687 108.287 386.168 107.885 387.395 107.081C388.643 106.277 389.744 105.05 390.696 103.399C391.225 102.426 391.796 101.664 392.41 101.114C393.023 100.564 393.774 100.289 394.663 100.289C395.721 100.289 396.599 100.691 397.297 101.495C397.996 102.299 398.345 103.156 398.345 104.066ZM438.367 97.1787C438.367 99.7601 437.965 102.14 437.161 104.32C436.357 106.499 435.193 108.372 433.669 109.938C432.146 111.503 430.326 112.709 428.21 113.556C426.095 114.381 423.714 114.793 421.069 114.793C418.446 114.793 416.086 114.37 413.992 113.524C411.897 112.678 410.077 111.472 408.533 109.906C407.009 108.319 405.846 106.457 405.042 104.32C404.259 102.162 403.867 99.7812 403.867 97.1787C403.867 94.555 404.269 92.1535 405.073 89.9741C405.877 87.7948 407.03 85.9328 408.533 84.3882C410.035 82.8436 411.855 81.6587 413.992 80.8335C416.129 79.9871 418.488 79.564 421.069 79.564C423.693 79.564 426.073 79.9871 428.21 80.8335C430.347 81.6799 432.178 82.8859 433.701 84.4517C435.225 86.0174 436.378 87.8794 437.161 90.0376C437.965 92.1958 438.367 94.5762 438.367 97.1787ZM429.67 97.1787C429.67 93.6452 428.888 90.8945 427.322 88.9268C425.777 86.959 423.693 85.9751 421.069 85.9751C419.377 85.9751 417.885 86.4194 416.594 87.3081C415.304 88.1756 414.309 89.4663 413.611 91.1802C412.913 92.894 412.563 94.8936 412.563 97.1787C412.563 99.4427 412.902 101.421 413.579 103.114C414.277 104.806 415.261 106.108 416.531 107.018C417.821 107.906 419.334 108.351 421.069 108.351C423.693 108.351 425.777 107.367 427.322 105.399C428.888 103.41 429.67 100.67 429.67 97.1787ZM474.041 97.8135V109.334C474.041 111.154 473.628 112.519 472.803 113.429C471.978 114.339 470.888 114.793 469.534 114.793C468.222 114.793 467.153 114.339 466.328 113.429C465.524 112.519 465.122 111.154 465.122 109.334V95.5283C465.122 93.349 465.048 91.6562 464.9 90.4502C464.752 89.2441 464.35 88.2603 463.694 87.4985C463.038 86.7157 462.001 86.3242 460.583 86.3242C457.748 86.3242 455.876 87.2975 454.966 89.2441C454.077 91.1908 453.633 93.9837 453.633 97.623V109.334C453.633 111.133 453.22 112.498 452.395 113.429C451.591 114.339 450.522 114.793 449.189 114.793C447.878 114.793 446.799 114.339 445.952 113.429C445.127 112.498 444.714 111.133 444.714 109.334V84.5469C444.714 82.9176 445.085 81.6799 445.825 80.8335C446.587 79.9871 447.581 79.564 448.809 79.564C449.993 79.564 450.977 79.966 451.76 80.77C452.564 81.5529 452.966 82.6426 452.966 84.0391V84.8643C454.469 83.0658 456.077 81.7433 457.791 80.897C459.504 80.0506 461.409 79.6274 463.503 79.6274C465.683 79.6274 467.555 80.0612 469.121 80.9287C470.687 81.7962 471.978 83.1081 472.993 84.8643C474.453 83.0869 476.019 81.7751 477.69 80.9287C479.362 80.0612 481.213 79.6274 483.245 79.6274C485.614 79.6274 487.656 80.0929 489.37 81.0239C491.084 81.9549 492.364 83.2879 493.21 85.0229C493.951 86.5887 494.321 89.0537 494.321 92.418V109.334C494.321 111.154 493.909 112.519 493.083 113.429C492.258 114.339 491.169 114.793 489.814 114.793C488.503 114.793 487.424 114.339 486.577 113.429C485.752 112.498 485.339 111.133 485.339 109.334V94.7666C485.339 92.9046 485.255 91.4129 485.085 90.2915C484.937 89.1701 484.514 88.2285 483.816 87.4668C483.118 86.7051 482.06 86.3242 480.642 86.3242C479.5 86.3242 478.41 86.6628 477.373 87.3398C476.357 88.0169 475.564 88.9268 474.993 90.0693C474.358 91.5293 474.041 94.1107 474.041 97.8135Z" fill="#F0B035"/>
</svg>
