<svg width="568" height="112" viewBox="0 0 568 112" fill="none" xmlns="http://www.w3.org/2000/svg">
<path d="M32.2161 88.5511C25.5968 88.5511 19.8724 87.1449 15.0428 84.3324C10.2417 81.4915 6.53431 77.5426 3.92068 72.4858C1.30704 67.4006 0.000222027 61.5057 0.000222027 54.8011C0.000222027 48.0398 1.30704 42.1307 3.92068 37.0739C6.53431 31.9886 10.2417 28.0398 15.0428 25.2273C19.8724 22.3864 25.5968 20.9659 32.2161 20.9659C38.8354 20.9659 44.5457 22.3864 49.3468 25.2273C54.1764 28.0398 57.8979 31.9886 60.5116 37.0739C63.1252 42.1307 64.432 48.0398 64.432 54.8011C64.432 61.5057 63.1252 67.4006 60.5116 72.4858C57.8979 77.5426 54.1764 81.4915 49.3468 84.3324C44.5457 87.1449 38.8354 88.5511 32.2161 88.5511ZM32.3014 74.4886C35.3127 74.4886 37.8269 73.6364 39.844 71.9318C41.861 70.1989 43.3809 67.8409 44.4036 64.858C45.4548 61.875 45.9803 58.4801 45.9803 54.6733C45.9803 50.8665 45.4548 47.4716 44.4036 44.4886C43.3809 41.5057 41.861 39.1477 39.844 37.4148C37.8269 35.6818 35.3127 34.8153 32.3014 34.8153C29.2616 34.8153 26.7048 35.6818 24.6309 37.4148C22.5855 39.1477 21.0372 41.5057 19.986 44.4886C18.9633 47.4716 18.4519 50.8665 18.4519 54.6733C18.4519 58.4801 18.9633 61.875 19.986 64.858C21.0372 67.8409 22.5855 70.1989 24.6309 71.9318C26.7048 73.6364 29.2616 74.4886 32.3014 74.4886ZM76.236 87.2727V21.8182H93.8354V33.2386H94.5173C95.7104 29.1761 97.7133 26.108 100.526 24.0341C103.338 21.9318 106.577 20.8807 110.242 20.8807C111.151 20.8807 112.131 20.9375 113.182 21.0511C114.233 21.1648 115.156 21.321 115.952 21.5199V37.6278C115.1 37.3722 113.921 37.1449 112.415 36.946C110.909 36.7472 109.531 36.6477 108.281 36.6477C105.611 36.6477 103.225 37.2301 101.122 38.3949C99.0485 39.5313 97.4008 41.1222 96.1792 43.1676C94.986 45.2131 94.3894 47.571 94.3894 50.2415V87.2727H76.236ZM146.41 88.3381C141.438 88.3381 136.936 87.0597 132.902 84.5028C128.896 81.9176 125.714 78.125 123.356 73.125C121.027 68.0966 119.862 61.9318 119.862 54.6307C119.862 47.1307 121.069 40.8949 123.484 35.9233C125.899 30.9233 129.109 27.1875 133.115 24.7159C137.149 22.2159 141.566 20.9659 146.367 20.9659C150.032 20.9659 153.086 21.5909 155.529 22.8409C158.001 24.0625 159.99 25.5966 161.495 27.4432C163.029 29.2614 164.194 31.0511 164.99 32.8125H165.544V5.72205e-06H183.654V87.2727H165.757V76.7898H164.99C164.137 78.608 162.93 80.4119 161.367 82.2017C159.833 83.9631 157.83 85.4261 155.359 86.5909C152.916 87.7557 149.933 88.3381 146.41 88.3381ZM152.163 73.8921C155.089 73.8921 157.561 73.0966 159.578 71.5057C161.623 69.8864 163.186 67.6278 164.265 64.7301C165.373 61.8324 165.927 58.4375 165.927 54.5455C165.927 50.6534 165.387 47.2727 164.308 44.4034C163.228 41.5341 161.666 39.3182 159.62 37.7557C157.575 36.1932 155.089 35.4119 152.163 35.4119C149.18 35.4119 146.666 36.2216 144.62 37.8409C142.575 39.4602 141.027 41.7046 139.975 44.5739C138.924 47.4432 138.399 50.7671 138.399 54.5455C138.399 58.3523 138.924 61.7188 139.975 64.6449C141.055 67.5426 142.603 69.8153 144.62 71.4631C146.666 73.0824 149.18 73.8921 152.163 73.8921ZM228.409 88.5511C221.676 88.5511 215.881 87.1875 211.023 84.4602C206.193 81.7046 202.472 77.8125 199.858 72.7841C197.245 67.7273 195.938 61.7472 195.938 54.8438C195.938 48.1108 197.245 42.2017 199.858 37.1165C202.472 32.0313 206.151 28.0682 210.895 25.2273C215.668 22.3864 221.264 20.9659 227.685 20.9659C232.003 20.9659 236.023 21.6619 239.745 23.054C243.495 24.4176 246.762 26.4773 249.546 29.233C252.358 31.9886 254.546 35.4546 256.108 39.6307C257.671 43.7784 258.452 48.6364 258.452 54.2046V59.1903H203.182V47.9403H241.364C241.364 45.3267 240.796 43.0114 239.659 40.9943C238.523 38.9773 236.946 37.4006 234.929 36.2642C232.941 35.0994 230.625 34.5171 227.983 34.5171C225.227 34.5171 222.784 35.1563 220.654 36.4347C218.551 37.6847 216.904 39.375 215.71 41.5057C214.517 43.608 213.906 45.9517 213.878 48.5369V59.233C213.878 62.4716 214.475 65.2699 215.668 67.6278C216.889 69.9858 218.608 71.804 220.824 73.0824C223.04 74.3608 225.668 75 228.708 75C230.725 75 232.571 74.7159 234.247 74.1477C235.924 73.5796 237.358 72.7273 238.551 71.5909C239.745 70.4546 240.654 69.0625 241.279 67.4148L258.068 68.5227C257.216 72.5568 255.469 76.0796 252.827 79.0909C250.213 82.0739 246.833 84.4034 242.685 86.0796C238.566 87.7273 233.807 88.5511 228.409 88.5511ZM270.299 87.2727V21.8182H287.898V33.2386H288.58C289.773 29.1761 291.776 26.108 294.588 24.0341C297.401 21.9318 300.639 20.8807 304.304 20.8807C305.213 20.8807 306.193 20.9375 307.245 21.0511C308.296 21.1648 309.219 21.321 310.014 21.5199V37.6278C309.162 37.3722 307.983 37.1449 306.477 36.946C304.972 36.7472 303.594 36.6477 302.344 36.6477C299.674 36.6477 297.287 37.2301 295.185 38.3949C293.111 39.5313 291.463 41.1222 290.242 43.1676C289.049 45.2131 288.452 47.571 288.452 50.2415V87.2727H270.299ZM337.553 5.72205e-06V87.2727H319.4V5.72205e-06H337.553ZM363.303 111.818C361.002 111.818 358.843 111.634 356.826 111.264C354.837 110.923 353.189 110.483 351.882 109.943L355.973 96.3921C358.104 97.0455 360.022 97.4006 361.726 97.4574C363.459 97.5142 364.951 97.1165 366.201 96.2642C367.479 95.4119 368.516 93.9631 369.311 91.9176L370.377 89.1477L346.897 21.8182H365.987L379.539 69.8864H380.22L393.899 21.8182H413.118L387.678 94.3466C386.456 97.8693 384.794 100.938 382.692 103.551C380.618 106.193 377.99 108.224 374.808 109.645C371.627 111.094 367.791 111.818 363.303 111.818Z" fill="#F2CB66"/>
<path d="M424.835 87.8729C423.312 87.8729 422.004 87.3343 420.911 86.2571C419.834 85.1645 419.295 83.8565 419.295 82.3331C419.295 80.8251 419.834 79.5324 420.911 78.4553C422.004 77.3781 423.312 76.8395 424.835 76.8395C426.312 76.8395 427.605 77.3781 428.713 78.4553C429.821 79.5324 430.375 80.8251 430.375 82.3331C430.375 83.3487 430.113 84.2797 429.59 85.1261C429.082 85.957 428.413 86.6264 427.582 87.1342C426.751 87.6267 425.835 87.8729 424.835 87.8729ZM454.467 87.9652C450.835 87.9652 447.712 87.1958 445.096 85.657C442.495 84.1028 440.495 81.9484 439.094 79.1939C437.709 76.4394 437.017 73.2694 437.017 69.684C437.017 66.0523 437.717 62.867 439.117 60.1278C440.533 57.3733 442.541 55.2267 445.142 53.6879C447.742 52.1336 450.835 51.3565 454.421 51.3565C457.514 51.3565 460.222 51.9182 462.546 53.0416C464.87 54.1649 466.708 55.7422 468.063 57.7734C469.417 59.8047 470.163 62.1899 470.302 64.929H461.023C460.761 63.1593 460.068 61.7359 458.945 60.6587C457.837 59.5662 456.383 59.0199 454.583 59.0199C453.059 59.0199 451.728 59.4354 450.589 60.2663C449.466 61.0819 448.589 62.2745 447.958 63.8441C447.327 65.4137 447.011 67.3142 447.011 69.5455C447.011 71.8075 447.319 73.7311 447.935 75.3161C448.566 76.901 449.451 78.109 450.589 78.94C451.728 79.771 453.059 80.1864 454.583 80.1864C455.706 80.1864 456.714 79.9556 457.606 79.494C458.514 79.0323 459.261 78.3629 459.845 77.4858C460.445 76.5933 460.838 75.5238 461.023 74.2774H470.302C470.148 76.9857 469.409 79.3709 468.086 81.4329C466.778 83.4795 464.97 85.0799 462.661 86.234C460.353 87.3881 457.622 87.9652 454.467 87.9652ZM492.617 87.9652C489.031 87.9652 485.93 87.2035 483.314 85.6801C480.714 84.1412 478.706 82.0023 477.29 79.2631C475.874 76.5086 475.166 73.3156 475.166 69.684C475.166 66.0216 475.874 62.8208 477.29 60.0817C478.706 57.3272 480.714 55.1882 483.314 53.6648C485.93 52.126 489.031 51.3565 492.617 51.3565C496.202 51.3565 499.295 52.126 501.896 53.6648C504.512 55.1882 506.528 57.3272 507.943 60.0817C509.359 62.8208 510.067 66.0216 510.067 69.684C510.067 73.3156 509.359 76.5086 507.943 79.2631C506.528 82.0023 504.512 84.1412 501.896 85.6801C499.295 87.2035 496.202 87.9652 492.617 87.9652ZM492.663 80.348C494.294 80.348 495.656 79.8864 496.748 78.9631C497.841 78.0244 498.664 76.7472 499.218 75.1314C499.787 73.5156 500.072 71.6767 500.072 69.6147C500.072 67.5527 499.787 65.7138 499.218 64.098C498.664 62.4823 497.841 61.205 496.748 60.2663C495.656 59.3277 494.294 58.8583 492.663 58.8583C491.016 58.8583 489.631 59.3277 488.508 60.2663C487.4 61.205 486.561 62.4823 485.992 64.098C485.438 65.7138 485.161 67.5527 485.161 69.6147C485.161 71.6767 485.438 73.5156 485.992 75.1314C486.561 76.7472 487.4 78.0244 488.508 78.9631C489.631 79.8864 491.016 80.348 492.663 80.348ZM516.461 87.2727V51.8182H525.832V58.0735H526.248C526.986 55.9961 528.217 54.3573 529.941 53.157C531.664 51.9567 533.726 51.3565 536.127 51.3565C538.558 51.3565 540.628 51.9644 542.336 53.18C544.044 54.3803 545.183 56.0115 545.752 58.0735H546.121C546.845 56.0423 548.153 54.4188 550.046 53.2031C551.954 51.9721 554.208 51.3565 556.809 51.3565C560.117 51.3565 562.802 52.4106 564.864 54.5188C566.942 56.6116 567.981 59.5816 567.981 63.4286V87.2727H558.171V65.3676C558.171 63.3979 557.647 61.9206 556.601 60.9357C555.554 59.9509 554.246 59.4585 552.677 59.4585C550.892 59.4585 549.499 60.0278 548.499 61.1666C547.499 62.2899 546.999 63.7749 546.999 65.6215V87.2727H537.466V65.1598C537.466 63.4209 536.965 62.036 535.965 61.005C534.98 59.974 533.68 59.4585 532.064 59.4585C530.972 59.4585 529.987 59.7354 529.11 60.2894C528.248 60.828 527.563 61.5897 527.055 62.5746C526.548 63.544 526.294 64.6828 526.294 65.9908V87.2727H516.461Z" fill="white"/>
</svg>
