<svg width="499" height="140" viewBox="0 0 499 140" fill="none" xmlns="http://www.w3.org/2000/svg">
<path d="M59.7656 94.5469C59.7656 98.9609 58.6914 102.75 56.543 105.914C54.3945 109.039 51.2109 111.422 46.9922 113.062C42.8125 114.664 37.7148 115.465 31.6992 115.465C25.957 115.465 21.0352 114.586 16.9336 112.828C12.832 111.07 9.80469 108.883 7.85156 106.266C5.89844 103.609 4.92188 100.953 4.92188 98.2969C4.92188 96.5391 5.54688 95.0352 6.79688 93.7852C8.04688 92.5352 9.62891 91.9102 11.543 91.9102C13.2227 91.9102 14.5117 92.3203 15.4102 93.1406C16.3086 93.9609 17.168 95.1133 17.9883 96.5977C19.6289 99.4492 21.582 101.578 23.8477 102.984C26.1523 104.391 29.2773 105.094 33.2227 105.094C36.4258 105.094 39.043 104.391 41.0742 102.984C43.1445 101.539 44.1797 99.8984 44.1797 98.0625C44.1797 95.25 43.1055 93.1992 40.957 91.9102C38.8477 90.6211 35.3516 89.3906 30.4688 88.2188C24.9609 86.8516 20.4688 85.4258 16.9922 83.9414C13.5547 82.418 10.8008 80.4258 8.73047 77.9648C6.66016 75.5039 5.625 72.4766 5.625 68.8828C5.625 65.6797 6.58203 62.6523 8.49609 59.8008C10.4102 56.9492 13.2227 54.6836 16.9336 53.0039C20.6836 51.2852 25.1953 50.4258 30.4688 50.4258C34.6094 50.4258 38.3203 50.8555 41.6016 51.7148C44.9219 52.5742 47.6758 53.7266 49.8633 55.1719C52.0898 56.6172 53.7695 58.2188 54.9023 59.9766C56.0742 61.7344 56.6602 63.4531 56.6602 65.1328C56.6602 66.9688 56.0352 68.4727 54.7852 69.6445C53.5742 70.8164 51.8359 71.4023 49.5703 71.4023C47.9297 71.4023 46.5234 70.9336 45.3516 69.9961C44.2188 69.0586 42.9102 67.6523 41.4258 65.7773C40.2148 64.2148 38.7891 62.9648 37.1484 62.0273C35.5078 61.0898 33.2812 60.6211 30.4688 60.6211C27.5781 60.6211 25.1758 61.2461 23.2617 62.4961C21.3477 63.707 20.3906 65.2305 20.3906 67.0664C20.3906 68.7461 21.0938 70.1328 22.5 71.2266C23.9062 72.2812 25.8008 73.1602 28.1836 73.8633C30.5664 74.5664 33.8477 75.4258 38.0273 76.4414C42.9883 77.6523 47.0312 79.0977 50.1562 80.7773C53.3203 82.457 55.7031 84.4492 57.3047 86.7539C58.9453 89.0195 59.7656 91.6172 59.7656 94.5469ZM113.145 108.141L99.0234 84.9375L90.3516 93.1406V105.855C90.3516 108.941 89.5312 111.324 87.8906 113.004C86.2891 114.645 84.4336 115.465 82.3242 115.465C79.8633 115.465 77.9297 114.645 76.5234 113.004C75.1172 111.363 74.4141 108.941 74.4141 105.738V37.5352C74.4141 33.9805 75.0977 31.2852 76.4648 29.4492C77.832 27.5742 79.7852 26.6367 82.3242 26.6367C84.7852 26.6367 86.7383 27.4766 88.1836 29.1562C89.6289 30.8359 90.3516 33.3164 90.3516 36.5977V75.3867L108.34 56.5195C110.566 54.1758 112.266 52.5742 113.438 51.7148C114.609 50.8555 116.035 50.4258 117.715 50.4258C119.707 50.4258 121.367 51.0703 122.695 52.3594C124.023 53.6094 124.688 55.1914 124.688 57.1055C124.688 59.4492 122.52 62.5742 118.184 66.4805L109.688 74.2734L126.094 100.055C127.305 101.969 128.164 103.434 128.672 104.449C129.219 105.426 129.492 106.363 129.492 107.262C129.492 109.801 128.789 111.812 127.383 113.297C126.016 114.742 124.199 115.465 121.934 115.465C119.98 115.465 118.477 114.938 117.422 113.883C116.367 112.828 114.941 110.914 113.145 108.141ZM153.809 117.457L155.273 113.883L135.586 64.3125C134.375 61.4609 133.77 59.3906 133.77 58.1016C133.77 56.7344 134.121 55.4648 134.824 54.293C135.527 53.1211 136.484 52.1836 137.695 51.4805C138.945 50.7773 140.234 50.4258 141.562 50.4258C143.867 50.4258 145.605 51.168 146.777 52.6523C147.949 54.0977 148.984 56.1875 149.883 58.9219L163.418 98.2969L176.25 61.6758C177.266 58.707 178.184 56.3828 179.004 54.7031C179.824 53.0234 180.684 51.8906 181.582 51.3047C182.52 50.7188 183.828 50.4258 185.508 50.4258C186.719 50.4258 187.871 50.7578 188.965 51.4219C190.098 52.0469 190.957 52.9062 191.543 54C192.168 55.0938 192.48 56.2461 192.48 57.457C192.324 58.1992 192.07 59.2539 191.719 60.6211C191.367 61.9883 190.938 63.375 190.43 64.7812L169.57 119.391C167.773 124.195 166.016 127.965 164.297 130.699C162.578 133.434 160.293 135.523 157.441 136.969C154.629 138.453 150.82 139.195 146.016 139.195C141.328 139.195 137.812 138.688 135.469 137.672C133.125 136.656 131.953 134.801 131.953 132.105C131.953 130.27 132.5 128.844 133.594 127.828C134.727 126.852 136.387 126.363 138.574 126.363C139.434 126.363 140.273 126.48 141.094 126.715C142.109 126.949 142.988 127.066 143.73 127.066C145.566 127.066 147.012 126.793 148.066 126.246C149.121 125.699 150.059 124.742 150.879 123.375C151.738 122.047 152.715 120.074 153.809 117.457ZM204.961 51.832H206.719V42.2227C206.719 39.6445 206.777 37.6328 206.895 36.1875C207.051 34.7031 207.441 33.4336 208.066 32.3789C208.691 31.2852 209.59 30.4062 210.762 29.7422C211.934 29.0391 213.242 28.6875 214.688 28.6875C216.719 28.6875 218.555 29.4492 220.195 30.9727C221.289 31.9883 221.973 33.2383 222.246 34.7227C222.559 36.168 222.715 38.2383 222.715 40.9336V51.832H228.574C230.84 51.832 232.559 52.3789 233.73 53.4727C234.941 54.5273 235.547 55.8945 235.547 57.5742C235.547 59.7227 234.688 61.2266 232.969 62.0859C231.289 62.9453 228.867 63.375 225.703 63.375H222.715V92.7891C222.715 95.2891 222.793 97.2227 222.949 98.5898C223.145 99.918 223.613 101.012 224.355 101.871C225.137 102.691 226.387 103.102 228.105 103.102C229.043 103.102 230.312 102.945 231.914 102.633C233.516 102.281 234.766 102.105 235.664 102.105C236.953 102.105 238.105 102.633 239.121 103.688C240.176 104.703 240.703 105.973 240.703 107.496C240.703 110.074 239.297 112.047 236.484 113.414C233.672 114.781 229.629 115.465 224.355 115.465C219.355 115.465 215.566 114.625 212.988 112.945C210.41 111.266 208.711 108.941 207.891 105.973C207.109 103.004 206.719 99.0391 206.719 94.0781V63.375H204.609C202.305 63.375 200.547 62.8281 199.336 61.7344C198.125 60.6406 197.52 59.2539 197.52 57.5742C197.52 55.8945 198.145 54.5273 199.395 53.4727C200.684 52.3789 202.539 51.832 204.961 51.832ZM246.621 105.738V36.3633C246.621 33.1602 247.324 30.7383 248.73 29.0977C250.176 27.457 252.109 26.6367 254.531 26.6367C256.953 26.6367 258.906 27.457 260.391 29.0977C261.875 30.6992 262.617 33.1211 262.617 36.3633V105.738C262.617 108.98 261.855 111.422 260.332 113.062C258.848 114.664 256.914 115.465 254.531 115.465C252.188 115.465 250.273 114.625 248.789 112.945C247.344 111.266 246.621 108.863 246.621 105.738ZM319.629 106.441C315.762 109.449 312.012 111.715 308.379 113.238C304.785 114.723 300.742 115.465 296.25 115.465C292.148 115.465 288.535 114.664 285.41 113.062C282.324 111.422 279.941 109.215 278.262 106.441C276.582 103.668 275.742 100.66 275.742 97.418C275.742 93.043 277.129 89.3125 279.902 86.2266C282.676 83.1406 286.484 81.0703 291.328 80.0156C292.344 79.7812 294.863 79.2539 298.887 78.4336C302.91 77.6133 306.348 76.8711 309.199 76.207C312.09 75.5039 315.215 74.6641 318.574 73.6875C318.379 69.4688 317.52 66.3828 315.996 64.4297C314.512 62.4375 311.406 61.4414 306.68 61.4414C302.617 61.4414 299.551 62.0078 297.48 63.1406C295.449 64.2734 293.691 65.9727 292.207 68.2383C290.762 70.5039 289.727 72.0078 289.102 72.75C288.516 73.4531 287.227 73.8047 285.234 73.8047C283.438 73.8047 281.875 73.2383 280.547 72.1055C279.258 70.9336 278.613 69.4492 278.613 67.6523C278.613 64.8398 279.609 62.1055 281.602 59.4492C283.594 56.793 286.699 54.6055 290.918 52.8867C295.137 51.168 300.391 50.3086 306.68 50.3086C313.711 50.3086 319.238 51.1484 323.262 52.8281C327.285 54.4688 330.117 57.0859 331.758 60.6797C333.438 64.2734 334.277 69.0391 334.277 74.9766C334.277 78.7266 334.258 81.9102 334.219 84.5273C334.219 87.1445 334.199 90.0547 334.16 93.2578C334.16 96.2656 334.648 99.4102 335.625 102.691C336.641 105.934 337.148 108.023 337.148 108.961C337.148 110.602 336.367 112.105 334.805 113.473C333.281 114.801 331.543 115.465 329.59 115.465C327.949 115.465 326.328 114.703 324.727 113.18C323.125 111.617 321.426 109.371 319.629 106.441ZM318.574 83.2969C316.23 84.1562 312.812 85.0742 308.32 86.0508C303.867 86.9883 300.781 87.6914 299.062 88.1602C297.344 88.5898 295.703 89.4688 294.141 90.7969C292.578 92.0859 291.797 93.9023 291.797 96.2461C291.797 98.668 292.715 100.738 294.551 102.457C296.387 104.137 298.789 104.977 301.758 104.977C304.922 104.977 307.832 104.293 310.488 102.926C313.184 101.52 315.156 99.7227 316.406 97.5352C317.852 95.1133 318.574 91.1289 318.574 85.582V83.2969Z" fill="#356AAF"/>
<path d="M352.524 114.793C351.213 114.793 350.081 114.37 349.128 113.524C348.176 112.678 347.7 111.493 347.7 109.969C347.7 108.679 348.155 107.568 349.065 106.637C349.975 105.706 351.096 105.24 352.429 105.24C353.762 105.24 354.894 105.706 355.825 106.637C356.777 107.547 357.253 108.657 357.253 109.969C357.253 111.472 356.777 112.656 355.825 113.524C354.894 114.37 353.794 114.793 352.524 114.793ZM398.228 104.066C398.228 105.145 397.9 106.298 397.244 107.525C396.609 108.753 395.625 109.927 394.292 111.048C392.98 112.149 391.319 113.037 389.309 113.714C387.299 114.391 385.035 114.73 382.517 114.73C377.164 114.73 372.985 113.175 369.98 110.064C366.976 106.933 365.474 102.743 365.474 97.4961C365.474 93.9414 366.161 90.7993 367.537 88.0698C368.912 85.3403 370.901 83.235 373.503 81.7539C376.106 80.2516 379.216 79.5005 382.834 79.5005C385.077 79.5005 387.13 79.8285 388.992 80.4844C390.875 81.1403 392.462 81.9867 393.752 83.0234C395.064 84.0602 396.059 85.1711 396.736 86.356C397.434 87.5197 397.783 88.6094 397.783 89.625C397.783 90.6618 397.392 91.5399 396.609 92.2593C395.847 92.9787 394.916 93.3384 393.816 93.3384C393.097 93.3384 392.493 93.1585 392.007 92.7988C391.541 92.418 391.012 91.8149 390.42 90.9897C389.362 89.3817 388.251 88.1756 387.087 87.3716C385.945 86.5675 384.485 86.1655 382.708 86.1655C380.147 86.1655 378.084 87.1706 376.519 89.1807C374.953 91.1696 374.17 93.8991 374.17 97.3691C374.17 98.9984 374.371 100.501 374.773 101.876C375.175 103.23 375.757 104.394 376.519 105.367C377.28 106.319 378.201 107.049 379.28 107.557C380.359 108.044 381.544 108.287 382.834 108.287C384.569 108.287 386.051 107.885 387.278 107.081C388.526 106.277 389.626 105.05 390.579 103.399C391.108 102.426 391.679 101.664 392.292 101.114C392.906 100.564 393.657 100.289 394.546 100.289C395.604 100.289 396.482 100.691 397.18 101.495C397.878 102.299 398.228 103.156 398.228 104.066ZM438.25 97.1787C438.25 99.7601 437.847 102.14 437.043 104.32C436.239 106.499 435.076 108.372 433.552 109.938C432.029 111.503 430.209 112.709 428.093 113.556C425.977 114.381 423.597 114.793 420.952 114.793C418.328 114.793 415.969 114.37 413.875 113.524C411.78 112.678 409.96 111.472 408.416 109.906C406.892 108.319 405.728 106.457 404.924 104.32C404.141 102.162 403.75 99.7812 403.75 97.1787C403.75 94.555 404.152 92.1535 404.956 89.9741C405.76 87.7948 406.913 85.9328 408.416 84.3882C409.918 82.8436 411.737 81.6587 413.875 80.8335C416.012 79.9871 418.371 79.564 420.952 79.564C423.576 79.564 425.956 79.9871 428.093 80.8335C430.23 81.6799 432.061 82.8859 433.584 84.4517C435.107 86.0174 436.261 87.8794 437.043 90.0376C437.847 92.1958 438.25 94.5762 438.25 97.1787ZM429.553 97.1787C429.553 93.6452 428.77 90.8945 427.205 88.9268C425.66 86.959 423.576 85.9751 420.952 85.9751C419.259 85.9751 417.768 86.4194 416.477 87.3081C415.186 88.1756 414.192 89.4663 413.494 91.1802C412.795 92.894 412.446 94.8936 412.446 97.1787C412.446 99.4427 412.785 101.421 413.462 103.114C414.16 104.806 415.144 106.108 416.414 107.018C417.704 107.906 419.217 108.351 420.952 108.351C423.576 108.351 425.66 107.367 427.205 105.399C428.77 103.41 429.553 100.67 429.553 97.1787ZM473.923 97.8135V109.334C473.923 111.154 473.511 112.519 472.686 113.429C471.86 114.339 470.771 114.793 469.417 114.793C468.105 114.793 467.036 114.339 466.211 113.429C465.407 112.519 465.005 111.154 465.005 109.334V95.5283C465.005 93.349 464.931 91.6562 464.783 90.4502C464.635 89.2441 464.233 88.2603 463.577 87.4985C462.921 86.7157 461.884 86.3242 460.466 86.3242C457.631 86.3242 455.758 87.2975 454.849 89.2441C453.96 91.1908 453.516 93.9837 453.516 97.623V109.334C453.516 111.133 453.103 112.498 452.278 113.429C451.474 114.339 450.405 114.793 449.072 114.793C447.76 114.793 446.681 114.339 445.835 113.429C445.01 112.498 444.597 111.133 444.597 109.334V84.5469C444.597 82.9176 444.967 81.6799 445.708 80.8335C446.47 79.9871 447.464 79.564 448.691 79.564C449.876 79.564 450.86 79.966 451.643 80.77C452.447 81.5529 452.849 82.6426 452.849 84.0391V84.8643C454.351 83.0658 455.959 81.7433 457.673 80.897C459.387 80.0506 461.292 79.6274 463.386 79.6274C465.566 79.6274 467.438 80.0612 469.004 80.9287C470.57 81.7962 471.86 83.1081 472.876 84.8643C474.336 83.0869 475.902 81.7751 477.573 80.9287C479.245 80.0612 481.096 79.6274 483.127 79.6274C485.497 79.6274 487.539 80.0929 489.253 81.0239C490.967 81.9549 492.247 83.2879 493.093 85.0229C493.834 86.5887 494.204 89.0537 494.204 92.418V109.334C494.204 111.154 493.792 112.519 492.966 113.429C492.141 114.339 491.051 114.793 489.697 114.793C488.385 114.793 487.306 114.339 486.46 113.429C485.635 112.498 485.222 111.133 485.222 109.334V94.7666C485.222 92.9046 485.138 91.4129 484.968 90.2915C484.82 89.1701 484.397 88.2285 483.699 87.4668C483 86.7051 481.943 86.3242 480.525 86.3242C479.382 86.3242 478.293 86.6628 477.256 87.3398C476.24 88.0169 475.447 88.9268 474.875 90.0693C474.241 91.5293 473.923 94.1107 473.923 97.8135Z" fill="#F2CB66"/>
</svg>
